<svg xmlns="http://www.w3.org/2000/svg" viewBox="0 0 40 40">
    <!-- Background -->
    <rect width="40" height="40" rx="8" fill="#3D6AB1"/>

    <!-- Stylized Java cup -->
    <path d="M12 30c0 0 3 2 8 2s8-2 8-2c0 0 2-1 2-3s-1-2-1-2h-18c0 0-1 0-1 2s2 3 2 3z" fill="#F58219"/>
    <path d="M20 10c-4 0-7 3-7 7 0 7 7 9 7 13h2c0-4 7-6 7-13 0-4-3-7-7-7z" fill="#F58219"/>

    <!-- var text -->
    <text x="20" y="24" font-family="Arial, sans-serif" font-weight="bold" font-size="10" fill="white" text-anchor="middle">var</text>

    <!-- Arrow indicating transformation -->
    <path d="M15 14L20 10L25 14" stroke="white" stroke-width="2" fill="none" stroke-linecap="round" stroke-linejoin="round"/>

    <!-- Code bracket symbols -->
    <path d="M12 16L10 20L12 24" stroke="white" stroke-width="1.5" fill="none" stroke-linecap="round"/>
    <path d="M28 16L30 20L28 24" stroke="white" stroke-width="1.5" fill="none" stroke-linecap="round"/>
</svg>